<svg width="20" height="21" viewBox="0 0 20 21" fill="none" xmlns="http://www.w3.org/2000/svg">
<path d="M17.2227 5.82427C17.2462 5.81051 17.2658 5.7908 17.2794 5.76712C17.293 5.74344 17.3002 5.71661 17.3002 5.68931C17.3002 5.662 17.293 5.63517 17.2794 5.61149C17.2658 5.58781 17.2462 5.56811 17.2227 5.55434L11.2563 2.08794C10.8745 1.86666 10.4411 1.75012 9.99981 1.75012C9.55855 1.75012 9.12512 1.86666 8.74336 2.08794L2.77813 5.55434C2.75454 5.56811 2.73497 5.58781 2.72137 5.61149C2.70777 5.63517 2.70062 5.662 2.70062 5.68931C2.70062 5.71661 2.70777 5.74344 2.72137 5.76712C2.73497 5.7908 2.75454 5.81051 2.77813 5.82427L9.92188 10.0266C9.94591 10.0408 9.97329 10.0482 10.0012 10.0482C10.0291 10.0482 10.0564 10.0408 10.0805 10.0266L17.2227 5.82427ZM2.10938 6.88716C2.08555 6.8734 2.05851 6.86618 2.031 6.86622C2.00349 6.86627 1.97647 6.87357 1.95269 6.88741C1.9289 6.90124 1.9092 6.92111 1.89556 6.945C1.88191 6.9689 1.87482 6.99597 1.875 7.02349V13.8161C1.87559 14.1434 1.96187 14.4649 2.12524 14.7485C2.28862 15.0322 2.52341 15.2681 2.80625 15.4329L9.14063 19.2309C9.16437 19.2446 9.1913 19.2518 9.21871 19.2518C9.24613 19.2518 9.27306 19.2446 9.29681 19.2309C9.32056 19.2173 9.34028 19.1975 9.35401 19.1738C9.36774 19.1501 9.37498 19.1232 9.375 19.0957V11.2149C9.37498 11.1875 9.36774 11.1606 9.35403 11.1369C9.34032 11.1131 9.32061 11.0934 9.29688 11.0797L2.10938 6.88716ZM10.625 11.2422V19.0938C10.625 19.1212 10.6323 19.1481 10.646 19.1719C10.6597 19.1956 10.6794 19.2153 10.7032 19.229C10.7269 19.2427 10.7539 19.2499 10.7813 19.2499C10.8087 19.2499 10.8356 19.2427 10.8594 19.229L17.1934 15.4309C17.476 15.2664 17.7107 15.0308 17.8741 14.7475C18.0375 14.4642 18.124 14.1431 18.125 13.8161V7.02349C18.1249 6.9961 18.1176 6.96923 18.1039 6.94555C18.0901 6.92188 18.0704 6.90223 18.0466 6.88858C18.0229 6.87493 17.996 6.86776 17.9686 6.86779C17.9412 6.86781 17.9143 6.87503 17.8906 6.88872L10.7031 11.1075C10.6795 11.1211 10.6598 11.1408 10.6461 11.1644C10.6324 11.1881 10.6251 11.2149 10.625 11.2422Z" fill="white"/>
</svg>
