<svg width="20" height="21" viewBox="0 0 20 21" fill="none" xmlns="http://www.w3.org/2000/svg">
<path fill-rule="evenodd" clip-rule="evenodd" d="M10.0432 1.54175H9.9565C9.20734 1.54175 8.58317 1.54175 8.08817 1.60841C7.56484 1.67841 7.09234 1.83341 6.71317 2.21258C6.33317 2.59258 6.17817 3.06508 6.10817 3.58758C6.06067 3.94341 6.0465 4.79258 6.04317 5.52091C4.35817 5.57675 3.34567 5.77341 2.64317 6.47675C1.6665 7.45258 1.6665 9.02425 1.6665 12.1667C1.6665 15.3092 1.6665 16.8809 2.64317 17.8567C3.61984 18.8326 5.19067 18.8334 8.33317 18.8334H11.6665C14.809 18.8334 16.3807 18.8334 17.3565 17.8567C18.3323 16.8801 18.3332 15.3092 18.3332 12.1667C18.3332 9.02425 18.3332 7.45258 17.3565 6.47675C16.654 5.77341 15.6415 5.57675 13.9565 5.52175C13.9532 4.79258 13.9398 3.94341 13.8915 3.58841C13.8215 3.06508 13.6665 2.59258 13.2865 2.21341C12.9073 1.83341 12.4348 1.67841 11.9115 1.60841C11.4165 1.54175 10.7915 1.54175 10.0432 1.54175ZM12.7065 5.50175C12.7023 4.79591 12.6907 4.03675 12.6532 3.75425C12.6007 3.37008 12.5115 3.20508 12.4032 3.09675C12.2948 2.98841 12.1298 2.89925 11.7448 2.84675C11.3432 2.79341 10.8032 2.79175 9.99984 2.79175C9.1965 2.79175 8.6565 2.79341 8.254 2.84758C7.86984 2.89925 7.70484 2.98841 7.5965 3.09758C7.48817 3.20675 7.399 3.37008 7.3465 3.75425C7.309 4.03758 7.2965 4.79591 7.29317 5.50175C7.61984 5.50008 7.9665 5.49953 8.33317 5.50008H11.6665C12.0343 5.50008 12.3809 5.50064 12.7065 5.50175ZM9.99984 8.20841C10.1656 8.20841 10.3246 8.27426 10.4418 8.39147C10.559 8.50868 10.6248 8.66765 10.6248 8.83341V8.84175C11.5323 9.07008 12.2915 9.78591 12.2915 10.7776C12.2915 10.9433 12.2257 11.1023 12.1084 11.2195C11.9912 11.3367 11.8323 11.4026 11.6665 11.4026C11.5007 11.4026 11.3418 11.3367 11.2246 11.2195C11.1074 11.1023 11.0415 10.9433 11.0415 10.7776C11.0415 10.4576 10.6865 10.0142 9.99984 10.0142C9.31317 10.0142 8.95817 10.4576 8.95817 10.7776C8.95817 11.0976 9.31317 11.5417 9.99984 11.5417C11.154 11.5417 12.2915 12.3417 12.2915 13.5559C12.2915 14.5476 11.5323 15.2626 10.6248 15.4917V15.5001C10.6248 15.6658 10.559 15.8248 10.4418 15.942C10.3246 16.0592 10.1656 16.1251 9.99984 16.1251C9.83408 16.1251 9.67511 16.0592 9.5579 15.942C9.44069 15.8248 9.37484 15.6658 9.37484 15.5001V15.4917C8.46734 15.2634 7.70817 14.5476 7.70817 13.5559C7.70817 13.3902 7.77402 13.2312 7.89123 13.114C8.00844 12.9968 8.16741 12.9309 8.33317 12.9309C8.49893 12.9309 8.6579 12.9968 8.77511 13.114C8.89232 13.2312 8.95817 13.3902 8.95817 13.5559C8.95817 13.8759 9.31317 14.3192 9.99984 14.3192C10.6865 14.3192 11.0415 13.8759 11.0415 13.5559C11.0415 13.2359 10.6865 12.7917 9.99984 12.7917C8.84567 12.7917 7.70817 11.9917 7.70817 10.7776C7.70817 9.78591 8.46734 9.07008 9.37484 8.84175V8.83341C9.37484 8.66765 9.44069 8.50868 9.5579 8.39147C9.67511 8.27426 9.83408 8.20841 9.99984 8.20841Z" fill="white"/>
</svg>
