<svg width="20" height="21" viewBox="0 0 20 21" fill="none" xmlns="http://www.w3.org/2000/svg">
<path d="M5.00033 18.4167C4.19477 18.4167 3.50727 18.132 2.93783 17.5626C2.36838 16.9931 2.08366 16.3056 2.08366 15.5001C2.08366 14.6945 2.36838 14.007 2.93783 13.4376C3.50727 12.8681 4.19477 12.5834 5.00033 12.5834C5.80588 12.5834 6.49338 12.8681 7.06283 13.4376C7.63227 14.007 7.91699 14.6945 7.91699 15.5001C7.91699 15.8056 7.87199 16.1009 7.78199 16.3859C7.69199 16.6709 7.55644 16.9381 7.37533 17.1876V16.6251C7.79199 16.8056 8.22255 16.9412 8.66699 17.0317C9.11144 17.1223 9.55588 17.1673 10.0003 17.1667C11.8614 17.1667 13.4378 16.5209 14.7295 15.2292C16.0212 13.9376 16.667 12.3612 16.667 10.5001H18.3337C18.3337 11.6529 18.1148 12.7362 17.677 13.7501C17.2392 14.764 16.6456 15.6459 15.8962 16.3959C15.1467 17.1459 14.2648 17.7398 13.2503 18.1776C12.2359 18.6154 11.1525 18.834 10.0003 18.8334C9.37533 18.8334 8.76421 18.7673 8.16699 18.6351C7.56977 18.5029 6.99338 18.3051 6.43783 18.0417C6.2156 18.1667 5.9831 18.2606 5.74033 18.3234C5.49755 18.3862 5.25088 18.4173 5.00033 18.4167ZM10.0003 13.4167C9.19477 13.4167 8.50727 13.132 7.93783 12.5626C7.36838 11.9931 7.08366 11.3056 7.08366 10.5001C7.08366 9.69453 7.36838 9.00703 7.93783 8.43758C8.50727 7.86814 9.19477 7.58341 10.0003 7.58341C10.8059 7.58341 11.4934 7.86814 12.0628 8.43758C12.6323 9.00703 12.917 9.69453 12.917 10.5001C12.917 11.3056 12.6323 11.9931 12.0628 12.5626C11.4934 13.132 10.8059 13.4167 10.0003 13.4167ZM1.66699 10.5001C1.66699 9.3473 1.88588 8.26397 2.32366 7.25008C2.76144 6.23619 3.35505 5.35425 4.10449 4.60425C4.85394 3.85425 5.73588 3.26064 6.75033 2.82341C7.76477 2.38619 8.8481 2.1673 10.0003 2.16675C10.6253 2.16675 11.2364 2.23286 11.8337 2.36508C12.4309 2.4973 13.0073 2.69508 13.5628 2.95841C13.785 2.83341 14.0178 2.73953 14.2612 2.67675C14.5045 2.61397 14.7509 2.58286 15.0003 2.58341C15.8059 2.58341 16.4934 2.86814 17.0628 3.43758C17.6323 4.00703 17.917 4.69453 17.917 5.50008C17.917 6.30564 17.6323 6.99314 17.0628 7.56258C16.4934 8.13203 15.8059 8.41675 15.0003 8.41675C14.1948 8.41675 13.5073 8.13203 12.9378 7.56258C12.3684 6.99314 12.0837 6.30564 12.0837 5.50008C12.0837 5.19453 12.1289 4.89953 12.2195 4.61508C12.31 4.33064 12.4453 4.06314 12.6253 3.81258V4.37508C12.2087 4.19453 11.7781 4.05897 11.3337 3.96841C10.8892 3.87786 10.4448 3.83286 10.0003 3.83341C8.13921 3.83341 6.56283 4.47925 5.27116 5.77091C3.97949 7.06258 3.33366 8.63897 3.33366 10.5001H1.66699Z" fill="white"/>
</svg>
