<svg width="20" height="21" viewBox="0 0 20 21" fill="none" xmlns="http://www.w3.org/2000/svg">
<path d="M1.66699 9.66671C1.66699 5.06421 5.39783 1.33337 10.0003 1.33337C14.6028 1.33337 18.3337 5.06421 18.3337 9.66671V13.9617C18.3337 15.3334 17.1503 16.3334 15.8337 16.3334H13.3337V9.66671H16.667C16.667 7.8986 15.9646 6.2029 14.7144 4.95266C13.4641 3.70242 11.7684 3.00004 10.0003 3.00004C8.23222 3.00004 6.53652 3.70242 5.28628 4.95266C4.03604 6.2029 3.33366 7.8986 3.33366 9.66671H6.66699V16.3334H5.05283C5.14522 16.6912 5.35392 17.0082 5.64612 17.2345C5.93831 17.4607 6.29743 17.5835 6.66699 17.5834H7.97033C8.23366 17.2059 8.67116 16.9584 9.16699 16.9584H10.8337C11.2204 16.9584 11.5914 17.112 11.8649 17.3855C12.1383 17.659 12.292 18.0299 12.292 18.4167C12.292 18.8035 12.1383 19.1744 11.8649 19.4479C11.5914 19.7214 11.2204 19.875 10.8337 19.875H9.16699C8.67116 19.875 8.23366 19.6275 7.97033 19.25H6.66699C5.83192 19.2501 5.02722 18.9368 4.41212 18.372C3.79701 17.8072 3.41631 17.0321 3.34533 16.2C2.39533 15.8859 1.66699 15.0384 1.66699 13.9625V9.66671Z" fill="white"/>
</svg>
