<svg width="20" height="21" viewBox="0 0 20 21" fill="none" xmlns="http://www.w3.org/2000/svg">
<g clip-path="url(#clip0_92_3436)">
<path fill-rule="evenodd" clip-rule="evenodd" d="M8.90429 4.78561C8.65361 5.22025 8.29289 5.58121 7.85841 5.83218C7.42394 6.08316 6.93104 6.21529 6.42929 6.21529C5.92754 6.21529 5.43463 6.08316 5.00016 5.83218C4.56569 5.58121 4.20497 5.22025 3.95429 4.78561H1.42857C1.04969 4.78561 0.686328 4.6351 0.418419 4.36719C0.15051 4.09928 7.45058e-08 3.73591 7.45058e-08 3.35703C7.45058e-08 2.97815 0.15051 2.61479 0.418419 2.34688C0.686328 2.07897 1.04969 1.92846 1.42857 1.92846H3.95429C4.20497 1.49382 4.56569 1.13286 5.00016 0.881885C5.43463 0.630912 5.92754 0.498779 6.42929 0.498779C6.93104 0.498779 7.42394 0.630912 7.85841 0.881885C8.29289 1.13286 8.65361 1.49382 8.90429 1.92846H15.3571C16.5885 1.92846 17.7694 2.41762 18.6401 3.28832C19.5108 4.15903 20 5.33996 20 6.57132C20 7.80268 19.5108 8.98361 18.6401 9.85432C17.7694 10.725 16.5885 11.2142 15.3571 11.2142H14.6186C14.368 11.6492 14.0072 12.0104 13.5726 12.2616C13.138 12.5128 12.6449 12.6451 12.1429 12.6451C11.6409 12.6451 11.1477 12.5128 10.7131 12.2616C10.2785 12.0104 9.91773 11.6492 9.66714 11.2142H5C4.43168 11.2142 3.88664 11.4399 3.48477 11.8418C3.08291 12.2437 2.85714 12.7887 2.85714 13.357C2.85714 13.9254 3.08291 14.4704 3.48477 14.8723C3.88664 15.2741 4.43168 15.4999 5 15.4999H5.38286C5.63363 15.0656 5.99431 14.7049 6.42863 14.4542C6.86296 14.2035 7.35564 14.0714 7.85714 14.0714C8.35865 14.0714 8.85133 14.2035 9.28565 14.4542C9.71998 14.7049 10.0807 15.0656 10.3314 15.4999H15.7143V14.0713C15.714 13.9299 15.7558 13.7915 15.8343 13.6738C15.9127 13.5561 16.0244 13.4644 16.1551 13.4102C16.2857 13.356 16.4295 13.3419 16.5683 13.3696C16.707 13.3972 16.8344 13.4655 16.9343 13.5656L19.7914 16.4227C19.9253 16.5567 20.0006 16.7383 20.0006 16.9277C20.0006 17.1172 19.9253 17.2988 19.7914 17.4327L16.9343 20.2899C16.8345 20.39 16.7072 20.4582 16.5686 20.4859C16.43 20.5136 16.2863 20.4996 16.1557 20.4456C16.0251 20.3916 15.9134 20.3001 15.8349 20.1826C15.7563 20.0651 15.7143 19.9269 15.7143 19.7856V18.357H10.3329C10.0823 18.792 9.72151 19.1533 9.28689 19.4045C8.85227 19.6557 8.35914 19.788 7.85714 19.788C7.35515 19.788 6.86202 19.6557 6.4274 19.4045C5.99278 19.1533 5.63201 18.792 5.38143 18.357H5C4.34339 18.357 3.69321 18.2277 3.08658 17.9764C2.47996 17.7252 1.92876 17.3569 1.46447 16.8926C1.00017 16.4283 0.631876 15.8771 0.380602 15.2705C0.129329 14.6638 0 14.0136 0 13.357C0 12.7004 0.129329 12.0502 0.380602 11.4436C0.631876 10.837 1.00017 10.2858 1.46447 9.8215C1.92876 9.35721 2.47996 8.98891 3.08658 8.73764C3.69321 8.48636 4.34339 8.35703 5 8.35703H9.66857C9.91935 7.92273 10.28 7.56208 10.7143 7.31134C11.1487 7.06059 11.6413 6.92859 12.1429 6.92859C12.6444 6.92859 13.137 7.06059 13.5714 7.31134C14.0057 7.56208 14.3664 7.92273 14.6171 8.35703H15.3571C15.8307 8.35703 16.2849 8.1689 16.6198 7.83401C16.9547 7.49912 17.1429 7.04492 17.1429 6.57132C17.1429 6.09772 16.9547 5.64352 16.6198 5.30863C16.2849 4.97374 15.8307 4.78561 15.3571 4.78561H8.90429Z" fill="white"/>
</g>
<defs>
<clipPath id="clip0_92_3436">
<rect width="20" height="20" fill="white" transform="translate(0 0.5)"/>
</clipPath>
</defs>
</svg>
