<svg width="48" height="48" viewBox="0 0 48 48" fill="none" xmlns="http://www.w3.org/2000/svg">
<path d="M22.5 44C21.4 44 20.292 43.8754 19.176 43.626C18.06 43.3767 16.918 43.018 15.75 42.55C16.15 38.5167 17.3167 34.75 19.25 31.25C21.1833 27.75 23.6667 24.6667 26.7 22C23.0333 23.8667 19.8587 26.3334 17.176 29.4C14.4933 32.4667 12.618 35.9667 11.55 39.9C11.4167 39.8 11.292 39.692 11.176 39.576L10.8 39.2C9.23333 37.6334 8.042 35.8834 7.226 33.95C6.41 32.0167 6.00133 30 6 27.9C6 25.6334 6.45 23.4667 7.35 21.4C8.25 19.3334 9.5 17.5 11.1 15.9C13.8 13.2 17.3 11.442 21.6 10.626C25.9 9.81003 31.9333 9.7347 39.7 10.4C40.3 18.3667 40.2 24.442 39.4 28.626C38.6 32.81 36.8667 36.2347 34.2 38.9C32.5667 40.5334 30.7413 41.792 28.724 42.676C26.7067 43.56 24.632 44.0014 22.5 44Z" fill="#00B34A"/>
</svg>
