<svg width="48" height="48" viewBox="0 0 48 48" fill="none" xmlns="http://www.w3.org/2000/svg">
<path d="M5.99988 19.5C5.99988 19.1022 6.15792 18.7206 6.43922 18.4393C6.72053 18.158 7.10206 18 7.49988 18H10.4999C10.8977 18 11.2792 18.158 11.5605 18.4393C11.8418 18.7206 11.9999 19.1022 11.9999 19.5C11.9999 19.8978 11.8418 20.2794 11.5605 20.5607C11.2792 20.842 10.8977 21 10.4999 21H7.49988C7.10206 21 6.72053 20.842 6.43922 20.5607C6.15792 20.2794 5.99988 19.8978 5.99988 19.5ZM13.393 11.0156C13.6745 11.2971 14.0562 11.4552 14.4543 11.4552C14.8523 11.4552 15.234 11.2971 15.5155 11.0156C15.797 10.7342 15.9551 10.3524 15.9551 9.95438C15.9551 9.55633 15.797 9.17459 15.5155 8.89313L13.393 6.7725C13.1094 6.50307 12.7318 6.35508 12.3406 6.36009C11.9495 6.3651 11.5758 6.52271 11.2992 6.79931C11.0226 7.07591 10.865 7.44962 10.86 7.84076C10.855 8.23191 11.003 8.60953 11.2724 8.89313L13.393 11.0156ZM23.9999 7.5C24.3977 7.5 24.7792 7.34196 25.0605 7.06066C25.3418 6.77936 25.4999 6.39782 25.4999 6V3C25.4999 2.60218 25.3418 2.22064 25.0605 1.93934C24.7792 1.65804 24.3977 1.5 23.9999 1.5C23.6021 1.5 23.2205 1.65804 22.9392 1.93934C22.6579 2.22064 22.4999 2.60218 22.4999 3V6C22.4999 6.39782 22.6579 6.77936 22.9392 7.06066C23.2205 7.34196 23.6021 7.5 23.9999 7.5ZM33.5455 11.4544C33.7425 11.4545 33.9377 11.4159 34.1198 11.3406C34.3019 11.2653 34.4674 11.1549 34.6068 11.0156L36.7274 8.89313C36.9968 8.60953 37.1448 8.23191 37.1398 7.84076C37.1348 7.44962 36.9772 7.07591 36.7006 6.79931C36.424 6.52271 36.0503 6.3651 35.6591 6.36009C35.268 6.35508 34.8904 6.50307 34.6068 6.7725L32.4843 8.89313C32.2742 9.10291 32.1312 9.37029 32.0732 9.66142C32.0152 9.95254 32.0449 10.2543 32.1586 10.5286C32.2722 10.8028 32.4646 11.0371 32.7115 11.202C32.9584 11.3668 33.2487 11.4546 33.5455 11.4544ZM35.9999 19.5C35.9999 19.8978 36.1579 20.2794 36.4392 20.5607C36.7205 20.842 37.1021 21 37.4999 21H40.4999C40.8977 21 41.2792 20.842 41.5605 20.5607C41.8418 20.2794 41.9999 19.8978 41.9999 19.5C41.9999 19.1022 41.8418 18.7206 41.5605 18.4393C41.2792 18.158 40.8977 18 40.4999 18H37.4999C37.1021 18 36.7205 18.158 36.4392 18.4393C36.1579 18.7206 35.9999 19.1022 35.9999 19.5ZM16.4999 21C16.8977 21 17.2792 20.842 17.5605 20.5607C17.8418 20.2794 17.9999 19.8978 17.9999 19.5C17.9999 17.9087 18.632 16.3826 19.7572 15.2574C20.8825 14.1321 22.4086 13.5 23.9999 13.5C25.5912 13.5 27.1173 14.1321 28.2425 15.2574C29.3677 16.3826 29.9999 17.9087 29.9999 19.5C29.9999 19.8978 30.1579 20.2794 30.4392 20.5607C30.7205 20.842 31.1021 21 31.4999 21C31.8977 21 32.2792 20.842 32.5605 20.5607C32.8418 20.2794 32.9999 19.8978 32.9999 19.5C32.9999 17.1131 32.0517 14.8239 30.3638 13.136C28.676 11.4482 26.3868 10.5 23.9999 10.5C21.6129 10.5 19.3237 11.4482 17.6359 13.136C15.9481 14.8239 14.9999 17.1131 14.9999 19.5C14.9999 19.8978 15.1579 20.2794 15.4392 20.5607C15.7205 20.842 16.1021 21 16.4999 21ZM26.8499 25.5H21.1499C20.9786 25.4999 20.8125 25.5585 20.6791 25.666C20.5457 25.7734 20.4532 25.9233 20.4168 26.0906L19.2411 31.5H28.7586L27.583 26.0906C27.5466 25.9233 27.454 25.7734 27.3207 25.666C27.1873 25.5585 27.0212 25.4999 26.8499 25.5ZM5.95301 34.875L3.18738 39.7612C3.02903 40.0409 2.96469 40.3641 3.00385 40.6831C3.04301 41.0021 3.18359 41.3001 3.40488 41.5331C3.55085 41.6833 3.72588 41.8021 3.91931 41.8824C4.11273 41.9627 4.32048 42.0027 4.52988 42H13.2843C13.4555 42.0001 13.6217 41.9415 13.755 41.834C13.8884 41.7266 13.981 41.5767 14.0174 41.4094L15.5174 34.5H6.60551C6.47335 34.4995 6.3434 34.5339 6.22882 34.5997C6.11424 34.6656 6.01909 34.7605 5.95301 34.875ZM44.8049 39.75L42.0468 34.875C41.9807 34.7605 41.8855 34.6656 41.771 34.5997C41.6564 34.5339 41.5264 34.4995 41.3943 34.5H32.4805L33.9805 41.4094C34.0169 41.5767 34.1095 41.7266 34.2429 41.834C34.3762 41.9415 34.5424 42.0001 34.7136 42H43.4549C43.6643 42.0027 43.872 41.9627 44.0655 41.8824C44.2589 41.8021 44.4339 41.6833 44.5799 41.5331C44.8036 41.3018 44.9469 41.0047 44.9888 40.6856C45.0307 40.3665 44.9688 40.0425 44.8124 39.7612L44.8049 39.75ZM39.5043 30.375L37.1755 26.25C37.0442 26.0179 36.8533 25.825 36.6226 25.6912C36.3919 25.5574 36.1297 25.4875 35.863 25.4888H31.4549C31.3428 25.4887 31.2322 25.5138 31.1311 25.5621C31.03 25.6104 30.9411 25.6808 30.8707 25.768C30.8004 25.8553 30.7505 25.9571 30.7248 26.0662C30.699 26.1752 30.698 26.2886 30.7218 26.3981L31.828 31.4888H38.8499C38.9803 31.4885 39.1084 31.4542 39.2216 31.3893C39.3347 31.3244 39.4289 31.2311 39.495 31.1187C39.5611 31.0062 39.5967 30.8785 39.5983 30.7481C39.5999 30.6176 39.5675 30.4891 39.5043 30.375ZM16.5449 25.5H12.1311C11.8644 25.4988 11.6022 25.5686 11.3715 25.7024C11.1408 25.8362 10.95 26.0291 10.8186 26.2612L8.49551 30.375C8.42947 30.4894 8.39481 30.6192 8.39502 30.7512C8.39523 30.8833 8.43031 31.013 8.49672 31.1271C8.56312 31.2413 8.65849 31.3359 8.77318 31.4013C8.88787 31.4668 9.01782 31.5009 9.14988 31.5H16.1718L17.278 26.4094C17.3018 26.2999 17.3008 26.1865 17.275 26.0774C17.2492 25.9684 17.1993 25.8665 17.129 25.7793C17.0587 25.6921 16.9697 25.6217 16.8686 25.5734C16.7676 25.525 16.6569 25.5 16.5449 25.5ZM29.4111 34.5H18.5886L17.1561 41.0906C17.1323 41.2001 17.1333 41.3135 17.1591 41.4226C17.1849 41.5316 17.2348 41.6335 17.3051 41.7207C17.3754 41.8079 17.4644 41.8783 17.5655 41.9266C17.6666 41.975 17.7772 42 17.8893 42H30.1105C30.2226 42 30.3332 41.975 30.4343 41.9266C30.5354 41.8783 30.6243 41.8079 30.6946 41.7207C30.765 41.6335 30.8149 41.5316 30.8406 41.4226C30.8664 41.3135 30.8674 41.2001 30.8436 41.0906L29.4111 34.5Z" fill="#00B34A"/>
</svg>
